<?xml version="1.0" encoding="utf-8"?>
<!-- Generator: Adobe Illustrator 16.0.0, SVG Export Plug-In . SVG Version: 6.00 Build 0)  -->
<!DOCTYPE svg PUBLIC "-//W3C//DTD SVG 1.1//EN" "http://www.w3.org/Graphics/SVG/1.1/DTD/svg11.dtd">
<svg version="1.1" id="Layer_1" xmlns="http://www.w3.org/2000/svg" xmlns:xlink="http://www.w3.org/1999/xlink" x="0px" y="0px"
	 width="850px" height="264px" viewBox="0 0 850 264" enable-background="new 0 0 850 264" xml:space="preserve">
<g>
	<path fill="#F37B70" d="M156.102,128c0,0,1.576-4.989-0.761-7.408c-1.232-1.275-2.497-2.012-3.585-2.453l-1.261,6.96
		C153.169,126.009,156.102,128,156.102,128z"/>
	<path fill="#CC2C4F" d="M140.959,133.198c-0.622-3.947,1.932-7.531,5.519-8.363l1.929-10.642c-1.218-3.685-4.126-6.96-9.922-8.017
		c-0.552-0.101-1.095-0.162-1.638-0.206c-1.119-1.293-3.131-3.28-5.076-3.478c-2.901-0.293-8.014,2.807-10.559,3.209
		c-2.22,0.35-7.487,0.16-10.22-1.389c-1.683-0.954-3.604-3.832-3.604-3.832s0.522,3.318,2.032,5.279
		c1.915,2.489,5.354,3.822,9.479,4.305c1.759,0.207,5.639-0.483,7.473-0.582c-5.796,5.314-8.097,14.521-4.625,32.507
		c-27.287-6.896-41.843-28.973-45.445-51.812c-5.497-34.854,18.302-67.564,53.156-73.061c3.154-0.498,6.288-0.748,9.389-0.779
		c0.026-0.105,0.046-0.215,0.075-0.319c-6.003-0.194-12.109,0.165-18.259,1.135C68.001,25.46,32.047,74.88,40.352,127.54
		c0.554,3.515,1.306,6.947,2.214,10.305c0.145-5.406,0.735-11.736,2.479-16.122c-0.114,20.937,4.259,33.542,4.691,34.737
		c3.687,7.212,8.246,13.848,13.506,19.811c-0.612-4.169-2.315-17.689,0.024-25.607c1.543,18.045,5.865,29.58,7.353,33.11
		c6.494,5.919,13.769,10.943,21.621,14.911c-1.278-2.821-7.262-16.521-7.117-25.316c5.743,15.432,12.264,25.064,15.188,28.945
		c5.458,2.156,11.133,3.834,16.974,4.97c0.026,0.096,0.05,0.197,0.076,0.296c0,0,7.635,0.954,13.458,3.661l13.108-72.332
		C141.945,137.411,141.353,135.694,140.959,133.198z"/>
	<path fill="#CC2C4F" d="M120.384,237.474c0,0,10.158-6.602,4.369-10.813c-6.861-4.992-19.365-4.032-12.922,11.149
		c2.043,4.036,6.756,6.904,12.618,8.572l1.433-7.904C124.163,238.423,122.33,238.115,120.384,237.474z"/>
	<path fill="#F37B70" d="M231.048,97.466c-6.229-39.492-35.579-69.588-72.08-78.669c-0.021,0.196-0.043,0.393-0.079,0.587
		c22.24,7.139,39.743,26.241,43.63,50.889c4.867,30.862-13.241,60.027-41.648,70.123c0,0-8.257,1.949-13.227,0.436l-13.157,72.598
		c9.965,7.584,6.318,21.977-4.465,24.637l-1.671,9.217c15.004,2.747,34.727-1.419,38.589-13.102
		c4.575-13.842-3.608-22.496-6.396-28.521c0.157-0.659,0.339,0.658,0.487-0.009c6.319-1.711,12.335-4.047,18.014-6.901
		c2.178-3.345,8.417-13.867,13.135-31.119c1.043,9.792-5.021,26.399-5.021,26.399c8.636-5.065,13.694-9.653,20.279-16.979
		c1.048-3.177,4.559-15.243,4.481-33.987c3.051,7.708,2.547,21.412,2.311,25.559c5.03-7.037,9.12-14.75,12.124-22.931
		c0.921-4.487,2.735-16.19,1.128-33.081c1.902,3.768,3.027,9.168,3.692,14.108C232.581,117.252,232.617,107.42,231.048,97.466z"/>
</g>
<g>
	<path fill="#1A7699" d="M290.031,135.813h-17.197v16.918h-8.956v-41.398h28.303v6.908h-19.347v10.691h17.197V135.813z"/>
	<path fill="#1A7699" d="M306.897,152.731h-8.956v-41.398h8.956V152.731z"/>
	<path fill="#1A7699" d="M350.545,152.731h-8.953l-17.436-27.239v27.239H315.2v-41.398h8.956l17.464,27.296v-27.296h8.925V152.731z"
		/>
	<path fill="#1A7699" d="M383.448,144.201h-15.703l-2.986,8.53h-9.522l16.179-41.398h8.304l16.27,41.398h-9.526L383.448,144.201z
		 M370.165,137.293h10.867l-5.466-15.497L370.165,137.293z"/>
	<path fill="#1A7699" d="M435.394,152.731h-8.957l-17.435-27.239v27.239h-8.957v-41.398h8.957l17.466,27.296v-27.296h8.926V152.731z
		"/>
	<path fill="#1A7699" d="M477.341,138.941c-0.339,4.455-2.064,7.962-5.178,10.52c-3.117,2.56-7.222,3.839-12.314,3.839
		c-5.576,0-9.958-1.785-13.153-5.359c-3.192-3.573-4.79-8.479-4.79-14.714v-2.531c0-3.98,0.735-7.486,2.208-10.52
		c1.474-3.033,3.578-5.359,6.315-6.98c2.735-1.62,5.915-2.431,9.539-2.431c5.016,0,9.053,1.278,12.118,3.838
		c3.065,2.559,4.84,6.149,5.317,10.776h-8.957c-0.221-2.674-1-4.612-2.345-5.814c-1.343-1.203-3.387-1.806-6.134-1.806
		c-2.985,0-5.22,1.018-6.705,3.057c-1.48,2.039-2.243,5.197-2.282,9.481v3.128c0,4.473,0.71,7.743,2.135,9.81
		c1.423,2.067,3.666,3.1,6.733,3.1c2.764,0,4.83-0.603,6.192-1.805c1.365-1.204,2.145-3.066,2.344-5.588H477.341z"/>
	<path fill="#1A7699" d="M492.746,152.731h-8.956v-41.398h8.956V152.731z"/>
	<path fill="#1A7699" d="M526.124,144.201h-15.703l-2.986,8.53h-9.524l16.184-41.398h8.297l16.272,41.398h-9.522L526.124,144.201z
		 M512.837,137.293h10.867l-5.462-15.497L512.837,137.293z"/>
	<path fill="#1A7699" d="M551.68,145.879h19.019v6.853h-27.976v-41.398h8.957V145.879z"/>
	<path fill="#1A7699" d="M581.117,135.87v16.861h-3.675v-41.398h14.809c4.518,0,8.087,1.101,10.703,3.298
		c2.618,2.198,3.926,5.223,3.926,9.07c0,3.887-1.26,6.887-3.776,8.999c-2.52,2.113-6.167,3.17-10.943,3.17H581.117z
		 M581.117,132.913h11.134c3.563,0,6.278-0.808,8.148-2.419c1.872-1.615,2.81-3.864,2.81-6.751c0-2.865-0.933-5.148-2.792-6.849
		c-1.862-1.697-4.504-2.568-7.928-2.604h-11.372V132.913z"/>
	<path fill="#1A7699" d="M647.304,152.731h-3.703v-19.846h-24.838v19.846h-3.671v-41.398h3.671v18.596h24.838v-18.596h3.703V152.731
		z"/>
	<path fill="#1A7699" d="M690.478,134.279c0,3.81-0.692,7.156-2.077,10.035c-1.381,2.882-3.357,5.1-5.925,6.653
		c-2.568,1.556-5.533,2.332-8.896,2.332c-5.075,0-9.176-1.729-12.301-5.188s-4.689-8.126-4.689-14.003v-4.266
		c0-3.772,0.703-7.114,2.107-10.022c1.401-2.909,3.387-5.146,5.957-6.711c2.564-1.563,5.521-2.345,8.866-2.345
		c3.343,0,6.295,0.767,8.851,2.303c2.56,1.535,4.532,3.704,5.929,6.511c1.39,2.807,2.118,6.057,2.179,9.753V134.279z
		 M686.803,129.786c0-4.984-1.183-8.892-3.551-11.715s-5.613-4.235-9.732-4.235c-4.041,0-7.259,1.414-9.659,4.25
		c-2.396,2.834-3.597,6.789-3.597,11.87v4.323c0,4.91,1.194,8.8,3.583,11.671c2.389,2.872,5.632,4.308,9.732,4.308
		c4.159,0,7.404-1.416,9.732-4.251c2.329-2.835,3.491-6.781,3.491-11.842V129.786z"/>
	<path fill="#1A7699" d="M723.732,132.886h-20.33v16.889h23.375v2.957h-27.049v-41.398h26.898v2.957h-23.225v15.639h20.33V132.886z"
		/>
	<path fill="#1A7699" d="M766.874,152.731h-3.671l-24.99-35.428v35.428h-3.702v-41.398h3.702l25.019,35.456v-35.456h3.643V152.731z"
		/>
	<path fill="#1A7699" d="M782.398,152.731h-3.671v-41.398h3.671V152.731z"/>
	<path fill="#1A7699" d="M807.923,128.848l12.244-17.515h4.387l-14.39,20.414L825,152.731h-4.418l-12.659-18.084l-12.715,18.084
		h-4.361l14.87-20.984l-14.422-20.414h4.391L807.923,128.848z"/>
</g>
<g display="none">
	<polygon display="inline" points="145.709,310.293 142.311,309.564 154.792,231.54 158.19,232.269 	"/>
</g>
</svg>
